<svg width="40" height="40" viewBox="0 0 40 40" fill="none" xmlns="http://www.w3.org/2000/svg">
<path d="M20.0186 33.605L13.0054 26.1911L15.2756 24.0436L20.0125 29.0512L24.7214 24.0466L26.9974 26.188L20.0186 33.605ZM32.9688 30.625V9.375C32.9688 4.20563 28.7631 0 23.5938 0H16.4062C11.2369 0 7.03125 4.20563 7.03125 9.375V30.625C7.03125 35.7944 11.2369 40 16.4062 40H23.5938C28.7631 40 32.9688 35.7944 32.9688 30.625ZM23.5938 3.125C27.0401 3.125 29.8438 5.92865 29.8438 9.375V30.625C29.8438 34.0714 27.0401 36.875 23.5938 36.875H16.4062C12.9599 36.875 10.1562 34.0714 10.1562 30.625V9.375C10.1562 5.92865 12.9599 3.125 16.4062 3.125H23.5938ZM20 6.32812C19.137 6.32812 18.4375 7.02759 18.4375 7.89062C18.4375 8.75366 19.137 9.45312 20 9.45312C20.863 9.45312 21.5625 8.75366 21.5625 7.89062C21.5625 7.02759 20.863 6.32812 20 6.32812ZM20 12.5781C19.137 12.5781 18.4375 13.2776 18.4375 14.1406C18.4375 15.0037 19.137 15.7031 20 15.7031C20.863 15.7031 21.5625 15.0037 21.5625 14.1406C21.5625 13.2776 20.863 12.5781 20 12.5781ZM20 18.8281C19.137 18.8281 18.4375 19.5276 18.4375 20.3906C18.4375 21.2537 19.137 21.9531 20 21.9531C20.863 21.9531 21.5625 21.2537 21.5625 20.3906C21.5625 19.5276 20.863 18.8281 20 18.8281Z" fill="white"/>
</svg>
